<?xml version="1.0" encoding="utf-8"?>
<!-- Generator: Adobe Illustrator 27.0.0, SVG Export Plug-In . SVG Version: 6.00 Build 0)  -->
<svg version="1.1" id="_图层_1" xmlns="http://www.w3.org/2000/svg" xmlns:xlink="http://www.w3.org/1999/xlink" x="0px" y="0px"
	 viewBox="0 0 150 150" style="enable-background:new 0 0 150 150;" xml:space="preserve">
<style type="text/css">
	.st0{fill:#FB5A1F;}
</style>
<g>
	<g id="g7RffX">
		<path class="st0" d="M52.5,98.8l-1.3,1.3L52.5,98.8L52.5,98.8L52.5,98.8z M93.1,105.4c-0.5-0.5-1.3-0.5-1.8-0.1
			c-5.1,4.1-11.4,6.2-17.9,5.9c-5.5-0.3-10.8-2.3-15-5.7c-0.5-0.4-1.3-0.4-1.8,0.1l-3.3,3.2c-0.6,0.6-0.5,1.5,0.1,2
			c5.4,4.6,12.3,7.3,19.6,7.7c0.6,0,1.2,0.1,1.8,0.1c7.9,0,15.5-2.8,21.5-7.9c0.6-0.5,0.6-1.4,0-2L93.1,105.4L93.1,105.4z
			 M52.5,98.8l-1.3,1.3L52.5,98.8L52.5,98.8L52.5,98.8z"/>
	</g>
	<path class="st0" d="M108.4,80.3c-1.6-9.2-4.3-13.6-7.4-17.8l-2.2-3C97,57,93.1,57.2,91.6,60L91,61.2c-2.1,2.3-2.2,2.6-4.3,4.5
		c-0.9,0.9-1.5,1.3-1.7,1.4c-0.1,0-0.2,0-0.2,0c-0.7-0.6-1.3-4.1-0.9-7.4l0-0.3c0.2-6.5,1.3-12.9-8.8-26l0,0c-2.2-3.3-7.2-2.3-8,1.5
		c-0.4,2.1-0.9,4-1.4,5.3c-1.7,4.3-4.6,9.9-9.7,14.8c-3,3-5.5,5.9-7.5,8.8c-2.6,3.8-4.3,6.9-5.7,11.5c-2.9,9.4-1.9,18.1,2.8,26.1
		c0.7,1.2,2.5,1.5,3.5,0.4l0.8-0.8l1.1-1.1l1.3-1.3l11.8-11.4c0.4-0.4,1-0.3,1.3,0l7.7,8c0.9,1,2.5,1,3.4,0l7.7-8
		c0.4-0.4,0.9-0.4,1.3,0l8.8,8.6l0.6,0.6l2.3,2.2l2.4,2.3l0.9,0.8c1,1,2.8,0.8,3.5-0.4C108.1,95,109.6,87.6,108.4,80.3L108.4,80.3z
		 M100.6,91.9l-14-13.6c-1-1-2.7-1-3.7,0.1l-7.6,7.9c-0.2,0.2-0.6,0.2-0.8,0l-7.6-7.9c-1-1-2.7-1.1-3.7-0.1L49.3,91.9
		c-1.3-4.5-1.1-9.2,0.5-14.3c1.2-3.8,2.5-6.2,4.8-9.6c1.7-2.5,3.9-5,6.6-7.7c5.8-5.7,9.2-12,11.2-17c0.2-0.6,1-0.6,1.3,0
		c3.4,6.6,3.3,11.5,3.1,15.8c-0.2,2-0.7,9.9,3.4,13.5c1.8,1.6,4.3,2.1,6.9,1.5l0.2,0c1.3-0.4,2.6-1.3,4.5-3.1c1-1,2-2.1,3-3.2
		c0.3-0.4,0.9-0.3,1.2,0.1c2.2,3.7,4.6,8.6,5.5,13.7C101.9,85,101.6,88.5,100.6,91.9L100.6,91.9z"/>
</g>
</svg>
